# Blender v2.78 (sub 0) OBJ File: 'Spielchip.blend'
# www.blender.org
mtllib Spielchip.mtl
o Cylinder
v -0.000000 -0.300000 -1.000000
v -0.000000 0.200000 -1.000000
v 0.195090 -0.300000 -0.980785
v 0.195090 0.200000 -0.980785
v 0.382683 -0.300000 -0.923879
v 0.382683 0.200000 -0.923879
v 0.555570 -0.300000 -0.831469
v 0.555570 0.200000 -0.831469
v 0.707107 -0.300000 -0.707106
v 0.707107 0.200000 -0.707106
v 0.831470 -0.300000 -0.555570
v 0.831470 0.200000 -0.555570
v 0.923879 -0.300000 -0.382683
v 0.923879 0.200000 -0.382683
v 0.980785 -0.300000 -0.195090
v 0.980785 0.200000 -0.195090
v 1.000000 -0.300000 0.000000
v 1.000000 0.200000 0.000000
v 0.980785 -0.300000 0.195090
v 0.980785 0.200000 0.195090
v 0.923879 -0.300000 0.382684
v 0.923879 0.200000 0.382684
v 0.831470 -0.300000 0.555570
v 0.831470 0.200000 0.555570
v 0.707107 -0.300000 0.707107
v 0.707107 0.200000 0.707107
v 0.555570 -0.300000 0.831470
v 0.555570 0.200000 0.831470
v 0.382683 -0.300000 0.923880
v 0.382683 0.200000 0.923880
v 0.195090 -0.300000 0.980786
v 0.195090 0.200000 0.980786
v -0.000000 -0.300000 1.000000
v -0.000000 0.200000 1.000000
v -0.195091 -0.300000 0.980785
v -0.195091 0.200000 0.980785
v -0.382684 -0.300000 0.923880
v -0.382684 0.200000 0.923880
v -0.555571 -0.300000 0.831470
v -0.555571 0.200000 0.831470
v -0.707107 -0.300000 0.707107
v -0.707107 0.200000 0.707107
v -0.831470 -0.300000 0.555570
v -0.831470 0.200000 0.555570
v -0.923880 -0.300000 0.382683
v -0.923880 0.200000 0.382683
v -0.980786 -0.300000 0.195090
v -0.980786 0.200000 0.195090
v -1.000000 -0.300000 -0.000001
v -1.000000 0.200000 -0.000001
v -0.980785 -0.300000 -0.195091
v -0.980785 0.200000 -0.195091
v -0.923879 -0.300000 -0.382684
v -0.923879 0.200000 -0.382684
v -0.831469 -0.300000 -0.555571
v -0.831469 0.200000 -0.555571
v -0.707106 -0.300000 -0.707107
v -0.707106 0.200000 -0.707107
v -0.555569 -0.300000 -0.831470
v -0.555569 0.200000 -0.831470
v -0.382682 -0.300000 -0.923880
v -0.382682 0.200000 -0.923880
v -0.195089 -0.300000 -0.980785
v -0.195089 0.200000 -0.980785
v -0.000000 -0.200000 -1.000000
v -0.000000 0.100000 -1.000000
v 0.195090 0.100000 -0.980785
v 0.195090 -0.200000 -0.980785
v 0.382683 0.100000 -0.923879
v 0.382683 -0.200000 -0.923879
v 0.555570 0.100000 -0.831469
v 0.555570 -0.200000 -0.831469
v 0.707107 0.100000 -0.707106
v 0.707107 -0.200000 -0.707106
v 0.831470 0.100000 -0.555570
v 0.831470 -0.200000 -0.555570
v 0.923879 0.100000 -0.382683
v 0.923879 -0.200000 -0.382683
v 0.980785 0.100000 -0.195090
v 0.980785 -0.200000 -0.195090
v 1.000000 0.100000 0.000000
v 1.000000 -0.200000 0.000000
v 0.980785 0.100000 0.195091
v 0.980785 -0.200000 0.195091
v 0.923879 0.100000 0.382684
v 0.923879 -0.200000 0.382684
v 0.831470 0.100000 0.555571
v 0.831470 -0.200000 0.555571
v 0.707107 0.100000 0.707107
v 0.707107 -0.200000 0.707107
v 0.555570 0.100000 0.831470
v 0.555570 -0.200000 0.831470
v 0.382683 0.100000 0.923880
v 0.382683 -0.200000 0.923880
v 0.195090 0.100000 0.980786
v 0.195090 -0.200000 0.980786
v -0.000000 0.100000 1.000000
v -0.000000 -0.200000 1.000000
v -0.195091 0.100000 0.980786
v -0.195091 -0.200000 0.980786
v -0.382684 0.100000 0.923880
v -0.382684 -0.200000 0.923880
v -0.555571 0.100000 0.831470
v -0.555571 -0.200000 0.831470
v -0.707107 0.100000 0.707107
v -0.707107 -0.200000 0.707107
v -0.831470 0.100000 0.555570
v -0.831470 -0.200000 0.555570
v -0.923880 0.100000 0.382683
v -0.923880 -0.200000 0.382683
v -0.980786 0.100000 0.195090
v -0.980786 -0.200000 0.195090
v -1.000000 0.100000 -0.000001
v -1.000000 -0.200000 -0.000001
v -0.980785 0.100000 -0.195091
v -0.980785 -0.200000 -0.195091
v -0.923879 0.100000 -0.382684
v -0.923879 -0.200000 -0.382684
v -0.831469 0.100000 -0.555571
v -0.831469 -0.200000 -0.555571
v -0.707106 0.100000 -0.707107
v -0.707106 -0.200000 -0.707107
v -0.555569 0.100000 -0.831470
v -0.555569 -0.200000 -0.831470
v -0.382682 0.100000 -0.923880
v -0.382682 -0.200000 -0.923880
v -0.195089 0.100000 -0.980785
v -0.195089 -0.200000 -0.980785
v -0.000000 -0.200000 -1.999999
v -0.000000 0.100000 -1.999999
v 0.390180 0.100000 -1.961570
v 0.390180 -0.200000 -1.961570
v 0.765367 0.100000 -1.847758
v 0.765367 -0.200000 -1.847758
v 1.111140 0.100000 -1.662939
v 1.111140 -0.200000 -1.662939
v 1.414213 0.100000 -1.414213
v 1.414213 -0.200000 -1.414213
v 1.662939 0.100000 -1.111140
v 1.662939 -0.200000 -1.111140
v 1.847759 0.100000 -0.765366
v 1.847759 -0.200000 -0.765366
v 1.961570 0.100000 -0.390180
v 1.961570 -0.200000 -0.390180
v 2.000000 0.100000 0.000000
v 2.000000 -0.200000 0.000001
v 1.961570 0.100000 0.390181
v 1.961570 -0.200000 0.390181
v 1.847759 0.100000 0.765367
v 1.847759 -0.200000 0.765367
v 1.662939 0.100000 1.111141
v 1.662939 -0.200000 1.111141
v 1.414213 0.100000 1.414214
v 1.414213 -0.200000 1.414214
v 1.111140 0.100000 1.662940
v 1.111140 -0.200000 1.662940
v 0.765366 0.100000 1.847760
v 0.765366 -0.200000 1.847760
v 0.390180 0.100000 1.961571
v 0.390180 -0.200000 1.961571
v -0.000001 0.100000 2.000001
v -0.000001 -0.200000 2.000001
v -0.390182 0.100000 1.961571
v -0.390182 -0.200000 1.961571
v -0.765368 0.100000 1.847759
v -0.765368 -0.200000 1.847759
v -1.111142 0.100000 1.662939
v -1.111142 -0.200000 1.662939
v -1.414215 0.100000 1.414213
v -1.414215 -0.200000 1.414213
v -1.662940 0.100000 1.111140
v -1.662940 -0.200000 1.111140
v -1.847760 0.100000 0.765366
v -1.847760 -0.200000 0.765366
v -1.961571 0.100000 0.390180
v -1.961571 -0.200000 0.390180
v -2.000000 0.100000 -0.000001
v -2.000000 -0.200000 -0.000001
v -1.961570 0.100000 -0.390182
v -1.961570 -0.200000 -0.390182
v -1.847758 0.100000 -0.765368
v -1.847758 -0.200000 -0.765368
v -1.662938 0.100000 -1.111142
v -1.662938 -0.200000 -1.111142
v -1.414212 0.100000 -1.414215
v -1.414212 -0.200000 -1.414215
v -1.111138 0.100000 -1.662940
v -1.111138 -0.200000 -1.662940
v -0.765364 0.100000 -1.847760
v -0.765364 -0.200000 -1.847760
v -0.390178 0.100000 -1.961571
v -0.390178 -0.200000 -1.961571
v -0.000000 -0.286667 -1.999999
v -0.000000 0.286667 -1.999999
v 0.390180 0.286667 -1.961570
v 0.390180 -0.286667 -1.961570
v 0.765367 0.286667 -1.847758
v 0.765367 -0.286667 -1.847758
v 1.111140 0.286667 -1.662939
v 1.111140 -0.286667 -1.662939
v 1.414213 0.286667 -1.414213
v 1.414213 -0.286667 -1.414213
v 1.662939 0.286667 -1.111140
v 1.662939 -0.286667 -1.111140
v 1.847759 0.286667 -0.765366
v 1.847759 -0.286667 -0.765366
v 1.961570 0.286667 -0.390180
v 1.961570 -0.286667 -0.390180
v 2.000000 0.286667 0.000001
v 2.000000 -0.286667 0.000001
v 1.961570 0.286667 0.390181
v 1.961570 -0.286667 0.390181
v 1.847759 0.286667 0.765367
v 1.847759 -0.286667 0.765367
v 1.662939 0.286667 1.111141
v 1.662939 -0.286667 1.111141
v 1.414213 0.286667 1.414214
v 1.414213 -0.286667 1.414214
v 1.111140 0.286667 1.662940
v 1.111140 -0.286667 1.662940
v 0.765366 0.286667 1.847760
v 0.765366 -0.286667 1.847760
v 0.390180 0.286667 1.961571
v 0.390180 -0.286667 1.961571
v -0.000001 0.286667 2.000001
v -0.000001 -0.286667 2.000001
v -0.390182 0.286667 1.961571
v -0.390182 -0.286667 1.961571
v -0.765368 0.286667 1.847759
v -0.765368 -0.286667 1.847759
v -1.111142 0.286667 1.662939
v -1.111142 -0.286667 1.662939
v -1.414215 0.286667 1.414213
v -1.414215 -0.286667 1.414213
v -1.662940 0.286667 1.111140
v -1.662940 -0.286667 1.111140
v -1.847760 0.286667 0.765366
v -1.847760 -0.286667 0.765366
v -1.961571 0.286667 0.390180
v -1.961571 -0.286667 0.390180
v -2.000000 0.286667 -0.000001
v -2.000000 -0.286667 -0.000001
v -1.961570 0.286667 -0.390182
v -1.961570 -0.286667 -0.390182
v -1.847758 0.286667 -0.765368
v -1.847758 -0.286667 -0.765368
v -1.662938 0.286667 -1.111142
v -1.662938 -0.286667 -1.111142
v -1.414212 0.286667 -1.414215
v -1.414212 -0.286667 -1.414215
v -1.111138 0.286667 -1.662940
v -1.111138 -0.286667 -1.662940
v -0.765364 0.286667 -1.847760
v -0.765364 -0.286667 -1.847760
v -0.390178 0.286667 -1.961571
v -0.390178 -0.286667 -1.961571
v -0.000000 -0.313333 -2.399999
v -0.000000 0.313333 -2.399999
v 0.468217 0.313333 -2.353884
v 0.468217 -0.313333 -2.353884
v 0.918440 0.313333 -2.217310
v 0.918440 -0.313333 -2.217310
v 1.333368 0.313333 -1.995526
v 1.333368 -0.313333 -1.995526
v 1.697056 0.313333 -1.697056
v 1.697056 -0.313333 -1.697056
v 1.995527 0.313333 -1.333368
v 1.995527 -0.313333 -1.333368
v 2.217311 0.313333 -0.918439
v 2.217311 -0.313333 -0.918439
v 2.353884 0.313333 -0.468216
v 2.353884 -0.313333 -0.468216
v 2.400000 0.313333 0.000001
v 2.400000 -0.313333 0.000001
v 2.353885 0.313333 0.468217
v 2.353885 -0.313333 0.468217
v 2.217311 0.313333 0.918441
v 2.217311 -0.313333 0.918441
v 1.995527 0.313333 1.333369
v 1.995527 -0.313333 1.333369
v 1.697056 0.313333 1.697057
v 1.697056 -0.313333 1.697057
v 1.333368 0.313333 1.995528
v 1.333368 -0.313333 1.995528
v 0.918440 0.313333 2.217312
v 0.918440 -0.313333 2.217312
v 0.468216 0.313333 2.353886
v 0.468216 -0.313333 2.353886
v -0.000001 0.313333 2.400001
v -0.000001 -0.313333 2.400001
v -0.468218 0.313333 2.353885
v -0.468218 -0.313333 2.353885
v -0.918442 0.313333 2.217311
v -0.918442 -0.313333 2.217311
v -1.333370 0.313333 1.995527
v -1.333370 -0.313333 1.995527
v -1.697058 0.313333 1.697056
v -1.697058 -0.313333 1.697056
v -1.995528 0.313333 1.333368
v -1.995528 -0.313333 1.333368
v -2.217312 0.313333 0.918439
v -2.217312 -0.313333 0.918439
v -2.353885 0.313333 0.468215
v -2.353885 -0.313333 0.468215
v -2.400000 0.313333 -0.000001
v -2.400000 -0.313333 -0.000001
v -2.353884 0.313333 -0.468218
v -2.353884 -0.313333 -0.468218
v -2.217310 0.313333 -0.918442
v -2.217310 -0.313333 -0.918442
v -1.995526 0.313333 -1.333370
v -1.995526 -0.313333 -1.333370
v -1.697054 0.313333 -1.697058
v -1.697054 -0.313333 -1.697058
v -1.333366 0.313333 -1.995528
v -1.333366 -0.313333 -1.995528
v -0.918437 0.313333 -2.217312
v -0.918437 -0.313333 -2.217311
v -0.468213 0.313333 -2.353885
v -0.468213 -0.313333 -2.353884
vn 0.0980 -0.0000 -0.9952
vn 0.2903 -0.0000 -0.9569
vn 0.4714 -0.0000 -0.8819
vn 0.6344 -0.0000 -0.7730
vn 0.7730 -0.0000 -0.6344
vn 0.8819 -0.0000 -0.4714
vn 0.9569 0.0000 -0.2903
vn 0.9952 -0.0000 -0.0980
vn 0.9952 0.0000 0.0980
vn 0.9569 0.0000 0.2903
vn 0.8819 0.0000 0.4714
vn 0.7730 0.0000 0.6344
vn 0.6344 0.0000 0.7730
vn 0.4714 0.0000 0.8819
vn 0.2903 0.0000 0.9569
vn 0.0980 0.0000 0.9952
vn -0.0980 0.0000 0.9952
vn -0.2903 0.0000 0.9569
vn -0.4714 0.0000 0.8819
vn -0.6344 0.0000 0.7730
vn -0.7730 0.0000 0.6344
vn -0.8819 0.0000 0.4714
vn -0.9569 -0.0000 0.2903
vn -0.9952 -0.0000 0.0980
vn -0.9952 -0.0000 -0.0980
vn -0.9569 -0.0000 -0.2903
vn -0.8819 0.0000 -0.4714
vn -0.7730 -0.0000 -0.6344
vn -0.6344 -0.0000 -0.7730
vn -0.4714 -0.0000 -0.8819
vn 0.0000 1.0000 -0.0000
vn -0.2903 -0.0000 -0.9569
vn -0.0980 -0.0000 -0.9952
vn 0.0000 -1.0000 -0.0000
vn 0.0315 0.9978 -0.0589
vn -0.0589 0.9978 0.0315
vn 0.0066 -0.9978 0.0665
vn 0.0315 -0.9978 -0.0589
vn -0.0589 -0.9978 0.0315
vn 0.0424 0.9978 -0.0517
vn -0.0640 0.9978 0.0194
vn 0.0424 -0.9978 -0.0517
vn -0.0640 -0.9978 0.0194
vn 0.0517 0.9978 -0.0424
vn -0.0665 0.9978 0.0066
vn 0.0517 -0.9978 -0.0424
vn -0.0665 -0.9978 0.0066
vn 0.0589 0.9978 -0.0315
vn -0.0665 0.9978 -0.0066
vn 0.0589 -0.9978 -0.0315
vn -0.0665 -0.9978 -0.0066
vn 0.0640 0.9978 -0.0194
vn -0.0640 0.9978 -0.0194
vn 0.0640 -0.9978 -0.0194
vn -0.0640 -0.9978 -0.0194
vn 0.0665 0.9978 -0.0066
vn -0.0589 0.9978 -0.0315
vn 0.0665 -0.9978 -0.0066
vn -0.0589 -0.9978 -0.0315
vn 0.0665 0.9978 0.0066
vn -0.0517 0.9978 -0.0424
vn 0.0665 -0.9978 0.0066
vn -0.0517 -0.9978 -0.0424
vn 0.0640 0.9978 0.0194
vn -0.0424 0.9978 -0.0517
vn 0.0640 -0.9978 0.0194
vn 0.0066 0.9978 0.0665
vn -0.0517 -0.9978 0.0424
vn 0.0194 -0.9978 -0.0640
vn 0.0194 -0.9978 0.0640
vn -0.0517 0.9978 0.0424
vn 0.0194 0.9978 -0.0640
vn 0.0194 0.9978 0.0640
vn -0.0424 -0.9978 0.0517
vn 0.0066 -0.9978 -0.0665
vn 0.0315 -0.9978 0.0589
vn -0.0424 0.9978 0.0517
vn 0.0066 0.9978 -0.0665
vn 0.0315 0.9978 0.0589
vn -0.0315 -0.9978 0.0589
vn -0.0066 -0.9978 -0.0665
vn 0.0424 -0.9978 0.0517
vn -0.0315 0.9978 0.0589
vn -0.0066 0.9978 -0.0665
vn 0.0424 0.9978 0.0517
vn -0.0194 -0.9978 0.0640
vn -0.0194 -0.9978 -0.0640
vn 0.0517 -0.9978 0.0424
vn -0.0194 0.9978 0.0640
vn -0.0194 0.9978 -0.0640
vn 0.0517 0.9978 0.0424
vn -0.0066 -0.9978 0.0665
vn -0.0315 -0.9978 -0.0589
vn 0.0589 -0.9978 0.0315
vn -0.0066 0.9978 0.0665
vn -0.0315 0.9978 -0.0589
vn 0.0589 0.9978 0.0315
vn -0.0424 -0.9978 -0.0517
usemtl None
s off
f 66//1 2//1 4//1 67//1
f 67//2 4//2 6//2 69//2
f 69//3 6//3 8//3 71//3
f 71//4 8//4 10//4 73//4
f 73//5 10//5 12//5 75//5
f 75//6 12//6 14//6 77//6
f 77//7 14//7 16//7 79//7
f 79//8 16//8 18//8 81//8
f 81//9 18//9 20//9 83//9
f 83//10 20//10 22//10 85//10
f 85//11 22//11 24//11 87//11
f 87//12 24//12 26//12 89//12
f 89//13 26//13 28//13 91//13
f 91//14 28//14 30//14 93//14
f 93//15 30//15 32//15 95//15
f 95//16 32//16 34//16 97//16
f 97//17 34//17 36//17 99//17
f 99//18 36//18 38//18 101//18
f 101//19 38//19 40//19 103//19
f 103//20 40//20 42//20 105//20
f 105//21 42//21 44//21 107//21
f 107//22 44//22 46//22 109//22
f 109//23 46//23 48//23 111//23
f 111//24 48//24 50//24 113//24
f 113//25 50//25 52//25 115//25
f 115//26 52//26 54//26 117//26
f 117//27 54//27 56//27 119//27
f 119//28 56//28 58//28 121//28
f 121//29 58//29 60//29 123//29
f 123//30 60//30 62//30 125//30
f 4//31 2//31 64//31 62//31 60//31 58//31 56//31 54//31 52//31 50//31 48//31 46//31 44//31 42//31 40//31 38//31 36//31 34//31 32//31 30//31 28//31 26//31 24//31 22//31 20//31 18//31 16//31 14//31 12//31 10//31 8//31 6//31
f 125//32 62//32 64//32 127//32
f 127//33 64//33 2//33 66//33
f 1//34 3//34 5//34 7//34 9//34 11//34 13//34 15//34 17//34 19//34 21//34 23//34 25//34 27//34 29//34 31//34 33//34 35//34 37//34 39//34 41//34 43//34 45//34 47//34 49//34 51//34 53//34 55//34 57//34 59//34 61//34 63//34
f 63//33 128//33 65//33 1//33
f 91//31 93//31 157//31 155//31
f 61//32 126//32 128//32 63//32
f 66//31 67//31 131//31 130//31
f 59//30 124//30 126//30 61//30
f 120//34 118//34 182//34 184//34
f 57//29 122//29 124//29 59//29
f 94//34 92//34 156//34 158//34
f 55//28 120//28 122//28 57//28
f 68//34 65//34 129//34 132//34
f 53//27 118//27 120//27 55//27
f 119//31 121//31 185//31 183//31
f 51//26 116//26 118//26 53//26
f 93//31 95//31 159//31 157//31
f 49//25 114//25 116//25 51//25
f 67//31 69//31 133//31 131//31
f 47//24 112//24 114//24 49//24
f 122//34 120//34 184//34 186//34
f 45//23 110//23 112//23 47//23
f 96//34 94//34 158//34 160//34
f 43//22 108//22 110//22 45//22
f 70//34 68//34 132//34 134//34
f 41//21 106//21 108//21 43//21
f 121//31 123//31 187//31 185//31
f 39//20 104//20 106//20 41//20
f 95//31 97//31 161//31 159//31
f 37//19 102//19 104//19 39//19
f 69//31 71//31 135//31 133//31
f 35//18 100//18 102//18 37//18
f 124//34 122//34 186//34 188//34
f 33//17 98//17 100//17 35//17
f 98//34 96//34 160//34 162//34
f 31//16 96//16 98//16 33//16
f 72//34 70//34 134//34 136//34
f 29//15 94//15 96//15 31//15
f 123//31 125//31 189//31 187//31
f 27//14 92//14 94//14 29//14
f 97//31 99//31 163//31 161//31
f 25//13 90//13 92//13 27//13
f 71//31 73//31 137//31 135//31
f 23//12 88//12 90//12 25//12
f 126//34 124//34 188//34 190//34
f 21//11 86//11 88//11 23//11
f 100//34 98//34 162//34 164//34
f 19//10 84//10 86//10 21//10
f 74//34 72//34 136//34 138//34
f 17//9 82//9 84//9 19//9
f 125//31 127//31 191//31 189//31
f 15//8 80//8 82//8 17//8
f 99//31 101//31 165//31 163//31
f 13//7 78//7 80//7 15//7
f 73//31 75//31 139//31 137//31
f 11//6 76//6 78//6 13//6
f 128//34 126//34 190//34 192//34
f 9//5 74//5 76//5 11//5
f 102//34 100//34 164//34 166//34
f 7//4 72//4 74//4 9//4
f 76//34 74//34 138//34 140//34
f 5//3 70//3 72//3 7//3
f 127//31 66//31 130//31 191//31
f 3//2 68//2 70//2 5//2
f 101//31 103//31 167//31 165//31
f 1//1 65//1 68//1 3//1
f 75//31 77//31 141//31 139//31
f 144//23 142//23 206//23 208//23
f 169//5 171//5 235//5 233//5
f 143//24 145//24 209//24 207//24
f 172//5 170//5 234//5 236//5
f 146//24 144//24 208//24 210//24
f 171//6 173//6 237//6 235//6
f 145//25 147//25 211//25 209//25
f 174//6 172//6 236//6 238//6
f 148//25 146//25 210//25 212//25
f 173//7 175//7 239//7 237//7
f 147//26 149//26 213//26 211//26
f 176//7 174//7 238//7 240//7
f 150//26 148//26 212//26 214//26
f 175//8 177//8 241//8 239//8
f 149//27 151//27 215//27 213//27
f 178//8 176//8 240//8 242//8
f 152//27 150//27 214//27 216//27
f 177//9 179//9 243//9 241//9
f 151//28 153//28 217//28 215//28
f 180//9 178//9 242//9 244//9
f 154//28 152//28 216//28 218//28
f 179//10 181//10 245//10 243//10
f 153//29 155//29 219//29 217//29
f 182//10 180//10 244//10 246//10
f 156//29 154//29 218//29 220//29
f 181//11 183//11 247//11 245//11
f 155//30 157//30 221//30 219//30
f 130//17 131//17 195//17 194//17
f 184//11 182//11 246//11 248//11
f 158//30 156//30 220//30 222//30
f 132//17 129//17 193//17 196//17
f 183//12 185//12 249//12 247//12
f 117//31 119//31 183//31 181//31
f 92//34 90//34 154//34 156//34
f 118//34 116//34 180//34 182//34
f 89//31 91//31 155//31 153//31
f 115//31 117//31 181//31 179//31
f 90//34 88//34 152//34 154//34
f 116//34 114//34 178//34 180//34
f 87//31 89//31 153//31 151//31
f 113//31 115//31 179//31 177//31
f 88//34 86//34 150//34 152//34
f 114//34 112//34 176//34 178//34
f 85//31 87//31 151//31 149//31
f 111//31 113//31 177//31 175//31
f 86//34 84//34 148//34 150//34
f 112//34 110//34 174//34 176//34
f 83//31 85//31 149//31 147//31
f 109//31 111//31 175//31 173//31
f 84//34 82//34 146//34 148//34
f 110//34 108//34 172//34 174//34
f 81//31 83//31 147//31 145//31
f 107//31 109//31 173//31 171//31
f 82//34 80//34 144//34 146//34
f 108//34 106//34 170//34 172//34
f 79//31 81//31 145//31 143//31
f 105//31 107//31 171//31 169//31
f 80//34 78//34 142//34 144//34
f 106//34 104//34 168//34 170//34
f 77//31 79//31 143//31 141//31
f 103//31 105//31 169//31 167//31
f 78//34 76//34 140//34 142//34
f 104//34 102//34 166//34 168//34
f 65//34 128//34 192//34 129//34
f 229//35 231//35 295//35 293//35
f 203//36 205//36 269//36 267//36
f 193//37 256//37 320//37 257//37
f 232//38 230//38 294//38 296//38
f 206//39 204//39 268//39 270//39
f 231//40 233//40 297//40 295//40
f 205//41 207//41 271//41 269//41
f 234//42 232//42 296//42 298//42
f 208//43 206//43 270//43 272//43
f 233//44 235//44 299//44 297//44
f 207//45 209//45 273//45 271//45
f 236//46 234//46 298//46 300//46
f 210//47 208//47 272//47 274//47
f 235//48 237//48 301//48 299//48
f 209//49 211//49 275//49 273//49
f 238//50 236//50 300//50 302//50
f 212//51 210//51 274//51 276//51
f 237//52 239//52 303//52 301//52
f 211//53 213//53 277//53 275//53
f 240//54 238//54 302//54 304//54
f 214//55 212//55 276//55 278//55
f 239//56 241//56 305//56 303//56
f 213//57 215//57 279//57 277//57
f 242//58 240//58 304//58 306//58
f 216//59 214//59 278//59 280//59
f 241//60 243//60 307//60 305//60
f 215//61 217//61 281//61 279//61
f 244//62 242//62 306//62 308//62
f 218//63 216//63 280//63 282//63
f 243//64 245//64 309//64 307//64
f 217//65 219//65 283//65 281//65
f 246//66 244//66 308//66 310//66
f 170//4 168//4 232//4 234//4
f 141//23 143//23 207//23 205//23
f 167//4 169//4 233//4 231//4
f 142//22 140//22 204//22 206//22
f 168//3 166//3 230//3 232//3
f 129//16 192//16 256//16 193//16
f 139//22 141//22 205//22 203//22
f 165//3 167//3 231//3 229//3
f 191//16 130//16 194//16 255//16
f 140//21 138//21 202//21 204//21
f 166//2 164//2 228//2 230//2
f 192//15 190//15 254//15 256//15
f 137//21 139//21 203//21 201//21
f 163//2 165//2 229//2 227//2
f 189//15 191//15 255//15 253//15
f 138//20 136//20 200//20 202//20
f 164//1 162//1 226//1 228//1
f 190//14 188//14 252//14 254//14
f 135//20 137//20 201//20 199//20
f 161//1 163//1 227//1 225//1
f 187//14 189//14 253//14 251//14
f 136//19 134//19 198//19 200//19
f 162//33 160//33 224//33 226//33
f 188//13 186//13 250//13 252//13
f 133//19 135//19 199//19 197//19
f 159//33 161//33 225//33 223//33
f 185//13 187//13 251//13 249//13
f 134//18 132//18 196//18 198//18
f 160//32 158//32 222//32 224//32
f 186//12 184//12 248//12 250//12
f 131//18 133//18 197//18 195//18
f 157//32 159//32 223//32 221//32
f 320//33 319//33 258//33 257//33
f 318//32 317//32 319//32 320//32
f 316//30 315//30 317//30 318//30
f 314//29 313//29 315//29 316//29
f 312//28 311//28 313//28 314//28
f 310//27 309//27 311//27 312//27
f 308//26 307//26 309//26 310//26
f 306//25 305//25 307//25 308//25
f 304//24 303//24 305//24 306//24
f 302//23 301//23 303//23 304//23
f 300//22 299//22 301//22 302//22
f 298//21 297//21 299//21 300//21
f 296//20 295//20 297//20 298//20
f 294//19 293//19 295//19 296//19
f 292//18 291//18 293//18 294//18
f 290//17 289//17 291//17 292//17
f 288//16 287//16 289//16 290//16
f 286//15 285//15 287//15 288//15
f 284//14 283//14 285//14 286//14
f 282//13 281//13 283//13 284//13
f 280//12 279//12 281//12 282//12
f 278//11 277//11 279//11 280//11
f 276//10 275//10 277//10 278//10
f 274//9 273//9 275//9 276//9
f 272//8 271//8 273//8 274//8
f 270//7 269//7 271//7 272//7
f 268//6 267//6 269//6 270//6
f 266//5 265//5 267//5 268//5
f 264//4 263//4 265//4 266//4
f 262//3 261//3 263//3 264//3
f 260//2 259//2 261//2 262//2
f 257//1 258//1 259//1 260//1
f 255//67 194//67 258//67 319//67
f 204//68 202//68 266//68 268//68
f 230//69 228//69 292//69 294//69
f 256//70 254//70 318//70 320//70
f 201//71 203//71 267//71 265//71
f 227//72 229//72 293//72 291//72
f 253//73 255//73 319//73 317//73
f 202//74 200//74 264//74 266//74
f 228//75 226//75 290//75 292//75
f 254//76 252//76 316//76 318//76
f 199//77 201//77 265//77 263//77
f 225//78 227//78 291//78 289//78
f 251//79 253//79 317//79 315//79
f 200//80 198//80 262//80 264//80
f 226//81 224//81 288//81 290//81
f 252//82 250//82 314//82 316//82
f 197//83 199//83 263//83 261//83
f 223//84 225//84 289//84 287//84
f 249//85 251//85 315//85 313//85
f 198//86 196//86 260//86 262//86
f 224//87 222//87 286//87 288//87
f 250//88 248//88 312//88 314//88
f 195//89 197//89 261//89 259//89
f 221//90 223//90 287//90 285//90
f 247//91 249//91 313//91 311//91
f 196//92 193//92 257//92 260//92
f 222//93 220//93 284//93 286//93
f 248//94 246//94 310//94 312//94
f 194//95 195//95 259//95 258//95
f 219//96 221//96 285//96 283//96
f 245//97 247//97 311//97 309//97
f 220//98 218//98 282//98 284//98
